<svg xmlns="http://www.w3.org/2000/svg" viewBox="0 0 1110.51 216">
    <defs>
        <style>.cls-1{fill:none;stroke:#1F2532;stroke-miterlimit:10;stroke-width:16px;}
            .cls-2{stroke:#1F2532; fill:#1F2532;}
        </style>
    </defs>
    <title>Asset 2</title>
    <g id="Layer_2" data-name="Layer 2">
        <g id="Layer_1-2" data-name="Layer 1">
            <path class="cls-2" d="M732.87,63.63q-8.64-8.31-24.61-8.31l-31.57-.07-1.33,7.63h9v.22l0-.17,25.2.07q11.28.29,17.07,6.52T731.19,86a25.38,25.38,0,0,1-9.26,17.25,29.31,29.31,0,0,1-19.3,6.63l-26.37-.07v-.06h-9l-9.06,52.13h9l7.76-44.38H705l17.21,44.38h9.52l.07-1-18.16-45q11.5-3.52,18.42-11.28a31.91,31.91,0,0,0,8-18.46Q741.51,71.94,732.87,63.63Z"/>
            <path class="cls-2" d="M817.69,110.76H769.35l-7.62,43.51h55.66l-1.32,7.62h-64.6L770,55.24h64.23l-1.39,7.62H777.62l-7,40.28H819Z"/>
            <path class="cls-2" d="M896.2,131.92H849.47l-15.89,30h-9.74L881.48,55.24h8.57l20.58,106.64h-8.86Zm-42.7-7.62h41.24L884.19,66.52Z"/>
            <path class="cls-2" d="M926.6,161.88,945.13,55.24l27.76.07q12.38,0,21.46,6.34a35.51,35.51,0,0,1,13.15,17.5,52,52,0,0,1,2.38,24.57l-1.32,8.86q-3.37,22.19-17.72,35.74T955.6,161.88Zm26.15-99-15.89,91.33,19,.07a41.36,41.36,0,0,0,20.43-5.13,42.8,42.8,0,0,0,15.27-14.47,54,54,0,0,0,7.91-21.09,146.73,146.73,0,0,0,2-16.22,52.78,52.78,0,0,0-.48-8.64q-1.69-11.72-8.94-18.6t-18.75-7.18Z"/>
            <path class="cls-2" d="M1058.07,113.25l41.6-58h10.84l-49.29,66.94-6.88,39.7h-8.94l7.1-40.65-25.63-66h10Z"/>
            <path class="cls-2" d="M325,127q-1.62,17.13-12.65,26.73T283,163.31a41.74,41.74,0,0,1-22.54-6.07,39.8,39.8,0,0,1-15-17.24q-5.29-11.18-5.51-26V104q0-15.15,5.37-26.69a40.45,40.45,0,0,1,15.4-17.79,43,43,0,0,1,23.2-6.25q17.72,0,28.53,9.6T325,90.08H306.49q-1.32-11.54-6.73-16.65t-15.85-5.11q-12.13,0-18.64,8.87t-6.65,26v9.49q0,17.37,6.21,26.5t18.2,9.13q11,0,16.47-4.93t7-16.4Z"/>
            <path class="cls-2" d="M421.81,111.1q0,15.74-5.44,27.61a41.14,41.14,0,0,1-15.55,18.24,45.62,45.62,0,0,1-46.47,0,41.76,41.76,0,0,1-15.74-18.12q-5.55-11.76-5.62-27.13v-6Q333,90,338.54,78A41.72,41.72,0,0,1,354.2,59.67a45.72,45.72,0,0,1,46.4-.07,41.21,41.21,0,0,1,15.63,18.09q5.51,11.8,5.59,27.46Zm-18.6-5.59q0-17.79-6.73-27.28T377.4,68.75q-12.06,0-18.86,9.45t-6.95,26.73v6.18q0,17.65,6.88,27.28T377.55,148q12.35,0,19-9.41t6.65-27.5Z"/>
            <path class="cls-2" d="M459.19,54.78l30.88,82.06,30.81-82.06h24V161.84H526.39V126.55l1.84-47.21-31.62,82.5H483.31L451.76,79.41l1.84,47.13v35.29H435.07V54.78Z"/>
            <path class="cls-2" d="M580.24,122.13v39.71h-18.6V54.78h41q17.94,0,28.49,9.35t10.55,24.73q0,15.75-10.33,24.51t-28.93,8.76Zm0-15h22.35q9.93,0,15.15-4.67T623,89q0-8.67-5.29-13.86t-14.56-5.33H580.24Z"/>
            <path class="cls-1" d="M191.21,52.55a100,100,0,1,0,.87,109.55"/>
            <path class="cls-2" d="M145.72,61.23q-8.84-8.5-25.17-8.5l-32.29-.07-1.36,7.81h9.19v.23l0-.17,25.77.07q11.54.3,17.46,6.67T144,84.12a26,26,0,0,1-9.48,17.64,30,30,0,0,1-19.74,6.78l-27-.07v-.06H78.56l-9.27,53.33h9.22l7.94-45.4h30.79l17.61,45.4h9.74l.07-1-18.58-46.08q11.76-3.6,18.84-11.54a32.65,32.65,0,0,0,8.2-18.88Q154.56,69.74,145.72,61.23Z"/>
        </g>
    </g>
</svg>